<svg data-v-29081953="" xmlns="http://www.w3.org/2000/svg" viewBox="0 0 300 300"><!----><defs data-v-29081953=""><!----></defs><rect data-v-29081953="" fill="#644A44" x="0" y="0" width="300px" height="300px" class="logo-background-square"></rect><defs data-v-29081953=""><!----></defs><g data-v-29081953="" id="e9a36fa5-5b24-4099-bf88-2d8fddceaa63" fill="#ffffff" transform="matrix(4.455869868022585,0,0,4.455869868022585,20,171.18680362160242)"><path d="M0 3.93L0 3.93L0.15 3.78L8.36 3.78L8.51 3.93L8.51 3.93Q8.44 5.12 8.44 6.69L8.44 6.69L7.95 6.69L7.95 6.69Q7.59 5.38 7.48 5.15L7.48 5.15L7.48 5.15Q7.42 4.98 7.35 4.84L7.35 4.84L7.35 4.84Q7.25 4.75 7.10 4.72L7.10 4.72L7.10 4.72Q6.37 4.58 5.63 4.58L5.63 4.58L5.63 4.58Q5.39 4.58 5.04 4.65L5.04 4.65L5.04 4.65Q4.93 7.29 4.93 12.95L4.93 12.95L4.93 12.95Q4.93 13.20 5.19 13.35L5.19 13.35L5.19 13.35Q5.45 13.50 5.71 13.54L5.71 13.54L5.71 13.54Q5.98 13.58 6.44 13.62L6.44 13.62L6.44 14.11L1.96 14.11L1.96 13.62L1.96 13.62Q2.30 13.59 2.50 13.57L2.50 13.57L2.50 13.57Q2.70 13.54 2.95 13.47L2.95 13.47L2.95 13.47Q3.21 13.40 3.33 13.27L3.33 13.27L3.33 13.27Q3.46 13.15 3.46 12.95L3.46 12.95L3.46 12.95Q3.50 10.23 3.50 7.63L3.50 7.63L3.50 7.63Q3.50 5.49 3.47 4.65L3.47 4.65L3.47 4.65Q3.12 4.58 2.88 4.58L2.88 4.58L2.88 4.58Q2.14 4.58 1.41 4.72L1.41 4.72L1.41 4.72Q1.26 4.75 1.16 4.84L1.16 4.84L1.16 4.84Q1.09 4.98 1.04 5.15L1.04 5.15L1.04 5.15Q0.92 5.38 0.56 6.69L0.56 6.69L0.07 6.69L0.07 6.69Q0.07 5.12 0 3.93ZM8.85 3.75L8.82 3.29L8.82 3.29Q9.42 3.23 9.91 3.15L9.91 3.15L9.91 3.15Q10.40 3.07 10.64 3.01L10.64 3.01L10.64 3.01Q10.88 2.95 10.92 2.95L10.92 2.95L10.92 2.95Q11.16 2.95 11.16 3.16L11.16 3.16L11.16 3.16Q11.16 3.22 11.15 3.61L11.15 3.61L11.15 3.61Q11.14 4.00 11.14 4.07L11.14 4.07L11.13 7.69L11.13 7.69Q12.75 6.78 13.82 6.78L13.82 6.78L13.82 6.78Q14.78 6.78 15.09 7.44L15.09 7.44L15.09 7.44Q15.40 8.11 15.40 9.62L15.40 9.62L15.40 9.62Q15.40 10.00 15.38 10.99L15.38 10.99L15.38 10.99Q15.36 11.98 15.36 12.59L15.36 12.59L15.36 12.59Q15.36 13.26 15.46 13.42L15.46 13.42L15.46 13.42Q15.57 13.58 16.07 13.64L16.07 13.64L16.07 14.11L13.41 14.11L13.41 13.64L13.41 13.64Q13.92 13.52 14.01 13.33L14.01 13.33L14.01 13.33Q14.11 13.13 14.11 12.28L14.11 12.28L14.11 9.77L14.11 9.77Q14.11 8.51 13.92 8.16L13.92 8.16L13.92 8.16Q13.73 7.80 13.03 7.80L13.03 7.80L13.03 7.80Q12.61 7.80 12.02 7.98L12.02 7.98L12.02 7.98Q11.42 8.16 11.13 8.36L11.13 8.36L11.13 8.36Q11.09 9.98 11.09 12.42L11.09 12.42L11.09 12.42Q11.09 13.20 11.21 13.40L11.21 13.40L11.21 13.40Q11.33 13.61 11.89 13.64L11.89 13.64L11.89 14.11L9.03 14.11L9.03 13.64L9.03 13.64Q9.49 13.61 9.67 13.47L9.67 13.47L9.67 13.47Q9.86 13.33 9.86 13.05L9.86 13.05L9.86 13.05Q9.86 11.73 9.86 9.77L9.86 9.77L9.86 9.77Q9.87 7.81 9.87 6.50L9.87 6.50L9.87 6.50Q9.87 4.47 9.73 4.11L9.73 4.11L9.73 4.11Q9.59 3.75 8.85 3.75L8.85 3.75ZM16.84 10.67L16.84 10.67L16.84 10.67Q16.84 9.25 17.15 8.53L17.15 8.53L17.15 8.53Q17.37 8.01 18.23 7.40L18.23 7.40L18.23 7.40Q19.08 6.79 19.82 6.79L19.82 6.79L19.82 6.79Q20.47 6.79 20.96 6.94L20.96 6.94L20.96 6.94Q21.45 7.10 21.73 7.40L21.73 7.40L21.73 7.40Q22.01 7.70 22.18 7.99L22.18 7.99L22.18 7.99Q22.36 8.27 22.42 8.70L22.42 8.70L22.42 8.70Q22.48 9.13 22.51 9.38L22.51 9.38L22.51 9.38Q22.53 9.63 22.53 10.00L22.53 10.00L22.53 10.00Q22.53 10.12 22.53 10.18L22.53 10.18L22.53 10.18Q22.08 10.46 21.06 10.46L21.06 10.46L18.19 10.46L18.19 10.46Q18.19 10.91 18.20 11.15L18.20 11.15L18.20 11.15Q18.21 11.40 18.26 11.78L18.26 11.78L18.26 11.78Q18.30 12.17 18.42 12.38L18.42 12.38L18.42 12.38Q18.54 12.60 18.73 12.82L18.73 12.82L18.73 12.82Q18.93 13.05 19.25 13.15L19.25 13.15L19.25 13.15Q19.57 13.24 20.01 13.24L20.01 13.24L20.01 13.24Q21.22 13.24 22.23 12.25L22.23 12.25L22.54 12.57L22.54 12.57Q22.48 12.63 22.27 12.85L22.27 12.85L22.27 12.85Q22.06 13.06 21.99 13.13L21.99 13.13L21.99 13.13Q21.92 13.20 21.73 13.39L21.73 13.39L21.73 13.39Q21.53 13.58 21.43 13.65L21.43 13.65L21.43 13.65Q21.32 13.72 21.13 13.86L21.13 13.86L21.13 13.86Q20.94 14 20.81 14.06L20.81 14.06L20.81 14.06Q20.68 14.11 20.49 14.19L20.49 14.19L20.49 14.19Q20.30 14.27 20.11 14.29L20.11 14.29L20.11 14.29Q19.92 14.32 19.73 14.32L19.73 14.32L19.73 14.32Q18.89 14.32 18.29 13.99L18.29 13.99L18.29 13.99Q17.70 13.66 17.39 13.10L17.39 13.10L17.39 13.10Q17.09 12.54 16.97 11.95L16.97 11.95L16.97 11.95Q16.84 11.35 16.84 10.67ZM18.21 9.83L18.21 9.83L19.01 9.83L19.01 9.83Q20.87 9.83 21.22 9.58L21.22 9.58L21.22 9.58Q21.22 9.28 21.17 9.00L21.17 9.00L21.17 9.00Q21.11 8.72 20.97 8.41L20.97 8.41L20.97 8.41Q20.83 8.09 20.52 7.90L20.52 7.90L20.52 7.90Q20.22 7.70 19.77 7.70L19.77 7.70L19.77 7.70Q18.82 7.70 18.52 8.17L18.52 8.17L18.52 8.17Q18.21 8.64 18.21 9.83ZM31.23 14.11L26.73 14.11L26.73 13.59L26.73 13.59Q27.15 13.57 27.38 13.52L27.38 13.52L27.38 13.52Q27.61 13.48 27.80 13.34L27.80 13.34L27.80 13.34Q27.99 13.20 27.99 12.95L27.99 12.95L27.99 12.95Q27.99 12.94 27.99 12.66L27.99 12.66L27.99 12.66Q28 12.38 28 11.91L28 11.91L28 11.91Q28 11.45 28.01 10.88L28.01 10.88L28.01 10.88Q28.01 10.32 28.02 9.60L28.02 9.60L28.02 9.60Q28.03 8.88 28.03 8.22L28.03 8.22L28.03 8.22Q28.03 6.29 27.99 4.86L27.99 4.86L27.99 4.86Q27.97 4.55 27.77 4.45L27.77 4.45L27.77 4.45Q27.57 4.34 27.03 4.31L27.03 4.31L26.82 4.30L26.82 3.78L26.82 3.78Q27.61 3.84 28.77 3.84L28.77 3.84L28.77 3.84Q29.88 3.84 30.52 3.79L30.52 3.79L33.85 3.78L34.02 3.93L34.02 3.93Q33.99 4.05 33.82 5.21L33.82 5.21L33.82 5.21Q33.66 6.37 33.64 6.52L33.64 6.52L33.17 6.52L33.17 6.52Q32.90 5.10 32.86 5.01L32.86 5.01L32.86 5.01Q32.77 4.75 32.63 4.65L32.63 4.65L32.63 4.65Q32.52 4.62 32.12 4.56L32.12 4.56L32.12 4.56Q31.78 4.52 30.70 4.52L30.70 4.52L30.70 4.52Q30.06 4.52 29.81 4.61L29.81 4.61L29.81 4.61Q29.55 4.70 29.54 5.00L29.54 5.00L29.54 5.00Q29.48 8.08 29.48 8.33L29.48 8.33L29.48 8.33Q31.47 8.33 32.94 8.26L32.94 8.26L32.80 9.30L32.55 9.30L32.55 9.30Q32.30 9.11 31.65 9.03L31.65 9.03L31.65 9.03Q31.01 8.95 30.27 8.94L30.27 8.94L30.27 8.94Q29.53 8.93 29.48 8.93L29.48 8.93L29.48 8.93Q29.44 12.04 29.44 12.95L29.44 12.95L29.44 12.95Q29.44 13.20 29.62 13.34L29.62 13.34L29.62 13.34Q29.81 13.47 30.04 13.52L30.04 13.52L30.04 13.52Q30.27 13.57 30.70 13.59L30.70 13.59L31.23 13.64L31.23 14.11ZM34.36 12.42L34.36 12.42L34.36 12.42Q34.36 11.93 34.45 11.55L34.45 11.55L34.45 11.55Q34.55 11.17 34.78 10.92L34.78 10.92L34.78 10.92Q35 10.67 35.22 10.50L35.22 10.50L35.22 10.50Q35.45 10.33 35.86 10.21L35.86 10.21L35.86 10.21Q36.27 10.09 36.58 10.03L36.58 10.03L36.58 10.03Q36.88 9.97 37.42 9.86L37.42 9.86L37.42 9.86Q37.97 9.76 38.30 9.69L38.30 9.69L38.30 9.69Q38.30 9.49 38.31 9.20L38.31 9.20L38.31 9.20Q38.32 8.90 38.32 8.85L38.32 8.85L38.32 8.85Q38.32 8.20 37.86 7.92L37.86 7.92L37.86 7.92Q37.39 7.64 36.79 7.64L36.79 7.64L36.79 7.64Q36.09 7.64 35.84 7.97L35.84 7.97L35.84 7.97Q35.59 8.30 35.29 9.38L35.29 9.38L34.72 9.32L34.72 9.32Q34.72 9.28 34.73 9.04L34.73 9.04L34.73 9.04Q34.73 8.79 34.77 8.60L34.77 8.60L34.77 8.60Q34.80 8.41 34.88 8.12L34.88 8.12L34.88 8.12Q34.96 7.83 35.15 7.61L35.15 7.61L35.15 7.61Q35.34 7.39 35.62 7.18L35.62 7.18L35.62 7.18Q35.90 6.97 36.36 6.86L36.36 6.86L36.36 6.86Q36.82 6.75 37.42 6.75L37.42 6.75L37.42 6.75Q38.04 6.75 38.47 6.89L38.47 6.89L38.47 6.89Q38.91 7.03 39.12 7.20L39.12 7.20L39.12 7.20Q39.34 7.38 39.46 7.68L39.46 7.68L39.46 7.68Q39.58 7.98 39.59 8.16L39.59 8.16L39.59 8.16Q39.61 8.34 39.61 8.62L39.61 8.62L39.61 8.62Q39.61 9.69 39.58 10.90L39.58 10.90L39.58 10.90Q39.55 12.11 39.55 12.32L39.55 12.32L39.55 12.32Q39.55 12.67 39.87 13.17L39.87 13.17L39.87 13.17Q40.18 13.66 40.18 13.75L40.18 13.75L40.18 13.75Q40.18 13.82 40.05 13.86L40.05 13.86L40.05 13.86Q39.07 14.18 38.98 14.18L38.98 14.18L38.98 14.18Q38.84 14.18 38.72 13.98L38.72 13.98L38.72 13.98Q38.60 13.78 38.50 13.48L38.50 13.48L38.50 13.48Q38.40 13.19 38.39 13.17L38.39 13.17L38.39 13.17Q38.18 13.31 37.87 13.52L37.87 13.52L37.87 13.52Q37.56 13.73 37.44 13.81L37.44 13.81L37.44 13.81Q37.32 13.89 37.11 14L37.11 14L37.11 14Q36.89 14.11 36.72 14.15L36.72 14.15L36.72 14.15Q36.55 14.20 36.30 14.22L36.30 14.22L36.30 14.22Q36.05 14.25 35.73 14.25L35.73 14.25L35.73 14.25Q35 14.25 34.68 13.72L34.68 13.72L34.68 13.72Q34.36 13.19 34.36 12.42ZM35.62 12.28L35.62 12.28L35.62 12.28Q35.62 13.31 36.55 13.31L36.55 13.31L36.55 13.31Q37.38 13.31 38.22 12.61L38.22 12.61L38.22 12.61Q38.32 12.53 38.32 11.42L38.32 11.42L38.32 11.42Q38.32 10.65 38.30 10.23L38.30 10.23L38.30 10.23Q38.05 10.32 37.67 10.44L37.67 10.44L37.67 10.44Q37.28 10.57 37.12 10.63L37.12 10.63L37.12 10.63Q36.96 10.68 36.69 10.77L36.69 10.77L36.69 10.77Q36.43 10.86 36.34 10.92L36.34 10.92L36.34 10.92Q36.25 10.98 36.09 11.06L36.09 11.06L36.09 11.06Q35.92 11.14 35.88 11.22L35.88 11.22L35.88 11.22Q35.84 11.30 35.76 11.40L35.76 11.40L35.76 11.40Q35.67 11.51 35.66 11.64L35.66 11.64L35.66 11.64Q35.64 11.77 35.63 11.92L35.63 11.92L35.63 11.92Q35.62 12.07 35.62 12.28ZM44.76 14.11L40.84 14.11L40.84 13.64L40.84 13.64Q41.17 13.59 41.29 13.59L41.29 13.59L41.29 13.59Q41.40 13.58 41.57 13.50L41.57 13.50L41.57 13.50Q41.75 13.43 41.78 13.36L41.78 13.36L41.78 13.36Q41.80 13.30 41.86 13.09L41.86 13.09L41.86 13.09Q41.92 12.88 41.92 12.67L41.92 12.67L41.92 12.67Q41.92 12.46 41.92 12.03L41.92 12.03L41.92 11.56L41.92 11.56Q41.92 8.75 41.82 8.26L41.82 8.26L41.82 8.26Q41.72 7.77 41.15 7.73L41.15 7.73L41.15 7.73Q41.06 7.71 41.01 7.71L41.01 7.71L40.98 7.18L40.98 7.18Q41.54 7.13 42.13 6.92L42.13 6.92L42.13 6.92Q42.71 6.71 42.87 6.71L42.87 6.71L42.87 6.71Q43.05 6.71 43.12 6.87L43.12 6.87L43.12 6.87Q43.19 7.03 43.19 7.45L43.19 7.45L43.20 7.98L43.20 7.98Q44.44 6.79 45.15 6.79L45.15 6.79L45.15 6.79Q45.67 6.79 45.86 6.92L45.86 6.92L45.86 6.92Q46.06 7.04 46.06 7.38L46.06 7.38L46.06 7.38Q46.06 7.49 45.84 8.89L45.84 8.89L45.33 8.89L45.33 8.89Q45.26 7.84 44.62 7.84L44.62 7.84L44.62 7.84Q44.25 7.84 43.73 8.17L43.73 8.17L43.73 8.17Q43.20 8.50 43.20 9.04L43.20 9.04L43.20 9.04Q43.20 9.44 43.20 11.01L43.20 11.01L43.20 11.01Q43.19 12.59 43.19 12.84L43.19 12.84L43.19 12.84Q43.19 13.27 43.44 13.40L43.44 13.40L43.44 13.40Q43.69 13.54 44.62 13.66L44.62 13.66L44.62 13.66Q44.72 13.68 44.76 13.68L44.76 13.68L44.76 14.11ZM46.48 10.75L46.48 10.75L46.48 10.75Q46.48 9.65 46.66 8.75L46.66 8.75L46.66 8.75Q46.76 8.33 47.15 8.01L47.15 8.01L47.15 8.01Q47.78 7.42 48.29 7.13L48.29 7.13L48.29 7.13Q48.80 6.85 49.05 6.80L49.05 6.80L49.05 6.80Q49.29 6.76 49.70 6.76L49.70 6.76L49.70 6.76Q50.25 6.76 50.83 6.87L50.83 6.87L50.83 6.87Q51.42 6.99 51.60 7.06L51.60 7.06L51.60 7.06Q51.56 7.48 51.56 9.16L51.56 9.16L51.14 9.16L51.14 9.16Q51.00 8.54 50.92 8.26L50.92 8.26L50.92 8.26Q50.85 8.01 50.32 7.87L50.32 7.87L50.32 7.87Q49.78 7.73 49.13 7.73L49.13 7.73L49.13 7.73Q48.30 7.73 48.01 8.26L48.01 8.26L48.01 8.26Q47.73 8.79 47.73 10.30L47.73 10.30L47.73 10.30Q47.73 10.99 47.80 11.47L47.80 11.47L47.80 11.47Q47.87 11.96 48.06 12.38L48.06 12.38L48.06 12.38Q48.26 12.80 48.65 13.01L48.65 13.01L48.65 13.01Q49.04 13.23 49.63 13.23L49.63 13.23L49.63 13.23Q50.05 13.23 50.53 12.98L50.53 12.98L50.53 12.98Q51.00 12.74 51.27 12.49L51.27 12.49L51.55 12.24L51.84 12.52L51.84 12.52Q51.79 12.59 51.51 12.89L51.51 12.89L51.51 12.89Q51.24 13.20 51.13 13.32L51.13 13.32L51.13 13.32Q51.02 13.44 50.74 13.68L50.74 13.68L50.74 13.68Q50.47 13.92 50.27 14.02L50.27 14.02L50.27 14.02Q50.06 14.13 49.77 14.22L49.77 14.22L49.77 14.22Q49.48 14.31 49.17 14.31L49.17 14.31L49.17 14.31Q48.44 14.31 47.66 13.89L47.66 13.89L47.66 13.89Q47.08 13.37 46.68 12.43L46.68 12.43L46.68 12.43Q46.48 11.59 46.48 10.75ZM52.65 10.67L52.65 10.67L52.65 10.67Q52.65 9.25 52.96 8.53L52.96 8.53L52.96 8.53Q53.19 8.01 54.04 7.40L54.04 7.40L54.04 7.40Q54.89 6.79 55.64 6.79L55.64 6.79L55.64 6.79Q56.28 6.79 56.77 6.94L56.77 6.94L56.77 6.94Q57.26 7.10 57.54 7.40L57.54 7.40L57.54 7.40Q57.82 7.70 58.00 7.99L58.00 7.99L58.00 7.99Q58.17 8.27 58.23 8.70L58.23 8.70L58.23 8.70Q58.30 9.13 58.32 9.38L58.32 9.38L58.32 9.38Q58.34 9.63 58.34 10.00L58.34 10.00L58.34 10.00Q58.34 10.12 58.34 10.18L58.34 10.18L58.34 10.18Q57.89 10.46 56.87 10.46L56.87 10.46L54.00 10.46L54.00 10.46Q54.00 10.91 54.01 11.15L54.01 11.15L54.01 11.15Q54.03 11.40 54.07 11.78L54.07 11.78L54.07 11.78Q54.11 12.17 54.23 12.38L54.23 12.38L54.23 12.38Q54.35 12.60 54.54 12.82L54.54 12.82L54.54 12.82Q54.74 13.05 55.06 13.15L55.06 13.15L55.06 13.15Q55.38 13.24 55.82 13.24L55.82 13.24L55.82 13.24Q57.04 13.24 58.04 12.25L58.04 12.25L58.35 12.57L58.35 12.57Q58.30 12.63 58.09 12.85L58.09 12.85L58.09 12.85Q57.88 13.06 57.81 13.13L57.81 13.13L57.81 13.13Q57.74 13.20 57.54 13.39L57.54 13.39L57.54 13.39Q57.34 13.58 57.24 13.65L57.24 13.65L57.24 13.65Q57.13 13.72 56.95 13.86L56.95 13.86L56.95 13.86Q56.76 14 56.62 14.06L56.62 14.06L56.62 14.06Q56.49 14.11 56.30 14.19L56.30 14.19L56.30 14.19Q56.11 14.27 55.92 14.29L55.92 14.29L55.92 14.29Q55.73 14.32 55.54 14.32L55.54 14.32L55.54 14.32Q54.70 14.32 54.10 13.99L54.10 13.99L54.10 13.99Q53.51 13.66 53.21 13.10L53.21 13.10L53.21 13.10Q52.91 12.54 52.78 11.95L52.78 11.95L52.78 11.95Q52.65 11.35 52.65 10.67ZM54.03 9.83L54.03 9.83L54.82 9.83L54.82 9.83Q56.69 9.83 57.04 9.58L57.04 9.58L57.04 9.58Q57.04 9.28 56.98 9.00L56.98 9.00L56.98 9.00Q56.92 8.72 56.78 8.41L56.78 8.41L56.78 8.41Q56.64 8.09 56.34 7.90L56.34 7.90L56.34 7.90Q56.03 7.70 55.58 7.70L55.58 7.70L55.58 7.70Q54.63 7.70 54.33 8.17L54.33 8.17L54.33 8.17Q54.03 8.64 54.03 9.83Z"></path></g><defs data-v-29081953=""><!----></defs><g data-v-29081953="" id="9b269ea2-316c-4db8-9f44-0e44230eae45" stroke="none" fill="#C28328" transform="matrix(1.0412902274973004,0,0,1.0412902274973004,98.29073799145058,63.70367360827351)"><path clip-rule="evenodd" d="M49.729 96.291c3.028-.993 5.426-1.828 7.852-2.558 1.411-.423 3.053-1.057 2.371-2.64-.729-1.685-2.798-1.627-3.952-.466-1.982 1.991-4.624 1.958-6.938 2.884-3.125 1.248-5.577.212-7.938-2.764 3.278-1.085 6.604-.413 9.582-2.399-11.487-5.304-18.134-16.04-27.716-23.449-6.491-5.016-8.958-12.008-4.554-20.369 2.63-4.998 3.832-10.652 4.771-16.308 1.812-10.904-.238-14.556-10.434-17.968-1.22-.41-2.837-.321-3.543-2.281 3.837-.801 7.811-.958 10.227-5.109 1.349-2.315 4.72-1.667 7.148-.945 2.899.864 4.334 3.167 4.528 6.227.449 7.083.273 14.174-.701 21.174-.912 6.534.17 11.772 6.817 14.525 1.924.794 1.984 1.48 1.099 3.434-4.967 10.95-.869 22.069 11.528 28.256-5.483-5.538-9.966-9.839-10.897-16.236-.281-1.924-.698-3.921-.463-5.816.878-7.017 5.2-9.128 11.172-5.267 4.61 2.978 8.826 6.556 13.299 9.754 8.096 5.778 16.769 10.098 27.01 10.088.446 1.671-.85 2.236-1.78 2.745-4.051 2.198-6.729 5.179-8.5 9.709-2.317 5.933-7.847 8.433-13.971 9.479-1.517.26-3.167-.451-3.561 2.506-.832 6.174-6.443 7.979-12.456 3.794z"></path></g><!----></svg>