<svg data-v-d3f97b9e="" xmlns="http://www.w3.org/2000/svg" viewBox="0 0 49.85644753576228 60"><!----><!----><!----><!----><g data-v-d3f97b9e="" id="e4eed42f-0455-4f16-880e-007807677474" transform="matrix(0.6165951268229841,0,0,0.6165951268229841,-5.691173484309054,-0.770656605717658)" stroke="none" fill="white"><path clip-rule="evenodd" d="M49.729 96.291c3.028-.993 5.426-1.828 7.852-2.558 1.411-.423 3.053-1.057 2.371-2.64-.729-1.685-2.798-1.627-3.952-.466-1.982 1.991-4.624 1.958-6.938 2.884-3.125 1.248-5.577.212-7.938-2.764 3.278-1.085 6.604-.413 9.582-2.399-11.487-5.304-18.134-16.04-27.716-23.449-6.491-5.016-8.958-12.008-4.554-20.369 2.63-4.998 3.832-10.652 4.771-16.308 1.812-10.904-.238-14.556-10.434-17.968-1.22-.41-2.837-.321-3.543-2.281 3.837-.801 7.811-.958 10.227-5.109 1.349-2.315 4.72-1.667 7.148-.945 2.899.864 4.334 3.167 4.528 6.227.449 7.083.273 14.174-.701 21.174-.912 6.534.17 11.772 6.817 14.525 1.924.794 1.984 1.48 1.099 3.434-4.967 10.95-.869 22.069 11.528 28.256-5.483-5.538-9.966-9.839-10.897-16.236-.281-1.924-.698-3.921-.463-5.816.878-7.017 5.2-9.128 11.172-5.267 4.61 2.978 8.826 6.556 13.299 9.754 8.096 5.778 16.769 10.098 27.01 10.088.446 1.671-.85 2.236-1.78 2.745-4.051 2.198-6.729 5.179-8.5 9.709-2.317 5.933-7.847 8.433-13.971 9.479-1.517.26-3.167-.451-3.561 2.506-.832 6.174-6.443 7.979-12.456 3.794z"></path></g><!----></svg>